<mxfile host="app.diagrams.net" modified="2021-04-02T09:17:52.622Z" agent="5.0 (Windows NT 6.1; Win64; x64) AppleWebKit/537.36 (KHTML, like Gecko) Chrome/89.0.4389.90 Safari/537.36" etag="vOzFBkWeEKoSBf8th4uk" version="14.4.2" type="github">
  <diagram id="8YcqIfKOJtz9LTvwkZPz" name="第 1 页">
    <mxGraphModel dx="1102" dy="1751" grid="1" gridSize="10" guides="1" tooltips="1" connect="1" arrows="1" fold="1" page="1" pageScale="1" pageWidth="827" pageHeight="1169" math="0" shadow="0">
      <root>
        <mxCell id="0" />
        <mxCell id="1" parent="0" />
        <mxCell id="Vli8Tv3BmSBitWUGqj1g-64" value="数据库" style="rounded=0;whiteSpace=wrap;html=1;fontSize=16;align=center;verticalAlign=top;" vertex="1" parent="1">
          <mxGeometry x="676.13" y="-145" width="280" height="235" as="geometry" />
        </mxCell>
        <mxCell id="Vli8Tv3BmSBitWUGqj1g-13" value="&lt;b style=&quot;font-size: 16px;&quot;&gt;源服务器 &lt;br style=&quot;font-size: 16px;&quot;&gt;lms&lt;/b&gt;" style="rounded=0;whiteSpace=wrap;html=1;fontSize=16;verticalAlign=top;" vertex="1" parent="1">
          <mxGeometry x="115" y="560" width="555" height="130" as="geometry" />
        </mxCell>
        <mxCell id="Vli8Tv3BmSBitWUGqj1g-14" style="edgeStyle=none;rounded=0;orthogonalLoop=1;jettySize=auto;html=1;entryX=0.25;entryY=0;entryDx=0;entryDy=0;fontSize=16;exitX=0.5;exitY=1;exitDx=0;exitDy=0;" edge="1" parent="1" source="Vli8Tv3BmSBitWUGqj1g-7" target="Vli8Tv3BmSBitWUGqj1g-13">
          <mxGeometry relative="1" as="geometry" />
        </mxCell>
        <mxCell id="Vli8Tv3BmSBitWUGqj1g-15" style="edgeStyle=none;rounded=0;orthogonalLoop=1;jettySize=auto;html=1;fontSize=16;" edge="1" parent="1" source="Vli8Tv3BmSBitWUGqj1g-7" target="Vli8Tv3BmSBitWUGqj1g-13">
          <mxGeometry relative="1" as="geometry" />
        </mxCell>
        <mxCell id="Vli8Tv3BmSBitWUGqj1g-16" style="edgeStyle=none;rounded=0;orthogonalLoop=1;jettySize=auto;html=1;entryX=0.75;entryY=0;entryDx=0;entryDy=0;fontSize=16;exitX=0.5;exitY=1;exitDx=0;exitDy=0;" edge="1" parent="1" source="Vli8Tv3BmSBitWUGqj1g-7" target="Vli8Tv3BmSBitWUGqj1g-13">
          <mxGeometry relative="1" as="geometry" />
        </mxCell>
        <mxCell id="Vli8Tv3BmSBitWUGqj1g-7" value="TS Cache Server&lt;br style=&quot;font-size: 16px;&quot;&gt;Nginx" style="rounded=0;whiteSpace=wrap;html=1;fontSize=16;verticalAlign=top;fontStyle=1" vertex="1" parent="1">
          <mxGeometry x="180" y="380" width="420" height="120" as="geometry" />
        </mxCell>
        <mxCell id="Vli8Tv3BmSBitWUGqj1g-3" value="&lt;b style=&quot;font-size: 16px;&quot;&gt;TS Balance&lt;br style=&quot;font-size: 16px;&quot;&gt;Keepalived&lt;br style=&quot;font-size: 16px;&quot;&gt;LVS&lt;/b&gt;" style="rounded=0;whiteSpace=wrap;html=1;fontSize=16;verticalAlign=top;" vertex="1" parent="1">
          <mxGeometry x="180" y="150" width="420" height="150" as="geometry" />
        </mxCell>
        <mxCell id="Vli8Tv3BmSBitWUGqj1g-1" value="主&lt;br style=&quot;font-size: 16px&quot;&gt;192.168.60.30" style="rounded=0;whiteSpace=wrap;html=1;fontSize=16;" vertex="1" parent="1">
          <mxGeometry x="230" y="200" width="120" height="60" as="geometry" />
        </mxCell>
        <mxCell id="Vli8Tv3BmSBitWUGqj1g-2" value="备&lt;br style=&quot;font-size: 16px&quot;&gt;192.168.60.31" style="rounded=0;whiteSpace=wrap;html=1;fontSize=16;" vertex="1" parent="1">
          <mxGeometry x="420" y="200" width="120" height="60" as="geometry" />
        </mxCell>
        <mxCell id="Vli8Tv3BmSBitWUGqj1g-8" style="rounded=0;orthogonalLoop=1;jettySize=auto;html=1;entryX=0.267;entryY=0.009;entryDx=0;entryDy=0;fontSize=16;entryPerimeter=0;" edge="1" parent="1" target="Vli8Tv3BmSBitWUGqj1g-7">
          <mxGeometry relative="1" as="geometry">
            <mxPoint x="390" y="299" as="sourcePoint" />
          </mxGeometry>
        </mxCell>
        <mxCell id="Vli8Tv3BmSBitWUGqj1g-9" style="edgeStyle=none;rounded=0;orthogonalLoop=1;jettySize=auto;html=1;entryX=0.736;entryY=-0.009;entryDx=0;entryDy=0;fontSize=16;exitX=0.5;exitY=1;exitDx=0;exitDy=0;entryPerimeter=0;" edge="1" parent="1" source="Vli8Tv3BmSBitWUGqj1g-3" target="Vli8Tv3BmSBitWUGqj1g-7">
          <mxGeometry relative="1" as="geometry" />
        </mxCell>
        <mxCell id="Vli8Tv3BmSBitWUGqj1g-4" value="VIP 192.168.60.20" style="text;html=1;align=center;verticalAlign=middle;resizable=0;points=[];autosize=1;fontSize=16;" vertex="1" parent="1">
          <mxGeometry x="310" y="270" width="150" height="20" as="geometry" />
        </mxCell>
        <mxCell id="Vli8Tv3BmSBitWUGqj1g-5" value="192.168.60.32" style="rounded=0;whiteSpace=wrap;html=1;fontSize=16;" vertex="1" parent="1">
          <mxGeometry x="230" y="420" width="120" height="60" as="geometry" />
        </mxCell>
        <mxCell id="Vli8Tv3BmSBitWUGqj1g-6" value="192.168.60.33" style="rounded=0;whiteSpace=wrap;html=1;fontSize=16;" vertex="1" parent="1">
          <mxGeometry x="420" y="420" width="120" height="60" as="geometry" />
        </mxCell>
        <mxCell id="Vli8Tv3BmSBitWUGqj1g-22" value="" style="edgeStyle=none;rounded=0;orthogonalLoop=1;jettySize=auto;html=1;entryX=0.5;entryY=0;entryDx=0;entryDy=0;fontSize=16;" edge="1" parent="1" source="Vli8Tv3BmSBitWUGqj1g-10" target="Vli8Tv3BmSBitWUGqj1g-19">
          <mxGeometry x="0.1111" relative="1" as="geometry">
            <mxPoint as="offset" />
          </mxGeometry>
        </mxCell>
        <mxCell id="Vli8Tv3BmSBitWUGqj1g-24" style="edgeStyle=none;rounded=0;orthogonalLoop=1;jettySize=auto;html=1;entryX=0.5;entryY=0;entryDx=0;entryDy=0;fontSize=16;" edge="1" parent="1" source="Vli8Tv3BmSBitWUGqj1g-10" target="Vli8Tv3BmSBitWUGqj1g-20">
          <mxGeometry relative="1" as="geometry" />
        </mxCell>
        <mxCell id="Vli8Tv3BmSBitWUGqj1g-10" value="192.168.60.35" style="rounded=0;whiteSpace=wrap;html=1;fontSize=16;" vertex="1" parent="1">
          <mxGeometry x="140" y="605" width="120" height="60" as="geometry" />
        </mxCell>
        <mxCell id="Vli8Tv3BmSBitWUGqj1g-25" style="edgeStyle=none;rounded=0;orthogonalLoop=1;jettySize=auto;html=1;fontSize=16;" edge="1" parent="1" source="Vli8Tv3BmSBitWUGqj1g-11" target="Vli8Tv3BmSBitWUGqj1g-20">
          <mxGeometry relative="1" as="geometry" />
        </mxCell>
        <mxCell id="Vli8Tv3BmSBitWUGqj1g-11" value="192.168.60.36" style="rounded=0;whiteSpace=wrap;html=1;fontSize=16;" vertex="1" parent="1">
          <mxGeometry x="330" y="605" width="120" height="60" as="geometry" />
        </mxCell>
        <mxCell id="Vli8Tv3BmSBitWUGqj1g-26" style="edgeStyle=none;rounded=0;orthogonalLoop=1;jettySize=auto;html=1;entryX=0.5;entryY=0;entryDx=0;entryDy=0;fontSize=16;exitX=0.5;exitY=1;exitDx=0;exitDy=0;" edge="1" parent="1" source="Vli8Tv3BmSBitWUGqj1g-12" target="Vli8Tv3BmSBitWUGqj1g-20">
          <mxGeometry relative="1" as="geometry" />
        </mxCell>
        <mxCell id="Vli8Tv3BmSBitWUGqj1g-27" style="edgeStyle=none;rounded=0;orthogonalLoop=1;jettySize=auto;html=1;entryX=0.5;entryY=0;entryDx=0;entryDy=0;fontSize=16;" edge="1" parent="1" source="Vli8Tv3BmSBitWUGqj1g-12" target="Vli8Tv3BmSBitWUGqj1g-21">
          <mxGeometry relative="1" as="geometry" />
        </mxCell>
        <mxCell id="Vli8Tv3BmSBitWUGqj1g-12" value="192.168.60.37&lt;br style=&quot;font-size: 16px;&quot;&gt;（&lt;span style=&quot;font-size: 16px; line-height: 115%;&quot;&gt;临时&lt;/span&gt;&lt;span lang=&quot;EN-US&quot; style=&quot;font-size: 16px; line-height: 115%; font-family: calibri, sans-serif;&quot;&gt;DNS&lt;/span&gt;&lt;span style=&quot;font-size: 16px; line-height: 115%;&quot;&gt;模块）&lt;/span&gt;" style="rounded=0;whiteSpace=wrap;html=1;fontSize=16;" vertex="1" parent="1">
          <mxGeometry x="520" y="600" width="130" height="65" as="geometry" />
        </mxCell>
        <mxCell id="Vli8Tv3BmSBitWUGqj1g-17" value="负载均衡&lt;br style=&quot;font-size: 16px;&quot;&gt;RR 算法" style="text;html=1;align=center;verticalAlign=middle;resizable=0;points=[];autosize=1;fontSize=16;" vertex="1" parent="1">
          <mxGeometry x="460" y="320" width="80" height="40" as="geometry" />
        </mxCell>
        <mxCell id="Vli8Tv3BmSBitWUGqj1g-18" value="反向代理" style="text;html=1;align=center;verticalAlign=middle;resizable=0;points=[];autosize=1;fontSize=16;" vertex="1" parent="1">
          <mxGeometry x="490" y="520" width="80" height="20" as="geometry" />
        </mxCell>
        <mxCell id="Vli8Tv3BmSBitWUGqj1g-19" value="存储服务器&lt;br style=&quot;font-size: 16px;&quot;&gt;172.31.3.150" style="ellipse;whiteSpace=wrap;html=1;fontSize=16;fillColor=#f5f5f5;strokeColor=#666666;fontColor=#333333;" vertex="1" parent="1">
          <mxGeometry x="140" y="800" width="120" height="80" as="geometry" />
        </mxCell>
        <mxCell id="Vli8Tv3BmSBitWUGqj1g-20" value="存储服务器&lt;br style=&quot;font-size: 16px;&quot;&gt;172.31.3.170" style="ellipse;whiteSpace=wrap;html=1;fontSize=16;fillColor=#f5f5f5;strokeColor=#666666;fontColor=#333333;" vertex="1" parent="1">
          <mxGeometry x="330" y="800" width="120" height="80" as="geometry" />
        </mxCell>
        <mxCell id="Vli8Tv3BmSBitWUGqj1g-21" value="存储服务器&lt;br style=&quot;font-size: 16px;&quot;&gt;172.31.3.171" style="ellipse;whiteSpace=wrap;html=1;fontSize=16;fillColor=#f5f5f5;strokeColor=#666666;fontColor=#333333;" vertex="1" parent="1">
          <mxGeometry x="520" y="800" width="120" height="80" as="geometry" />
        </mxCell>
        <mxCell id="Vli8Tv3BmSBitWUGqj1g-28" value="&lt;div style=&quot;font-size: 16px&quot;&gt;&lt;font style=&quot;font-size: 16px&quot;&gt;挂载：&lt;/font&gt;&lt;/div&gt;&lt;div style=&quot;font-size: 16px&quot;&gt;&lt;font style=&quot;font-size: 16px&quot;&gt;IP：35&lt;/font&gt;&lt;/div&gt;&lt;div style=&quot;font-size: 16px&quot;&gt;&lt;font style=&quot;font-size: 16px&quot;&gt;mount -t nfs4 172.31.3.150:/OTT_data/icntv/mp4 /mnt/icntv/mp4/&lt;/font&gt;&lt;/div&gt;&lt;div style=&quot;font-size: 16px&quot;&gt;&lt;div style=&quot;font-size: 16px;&quot;&gt;&lt;font style=&quot;font-size: 16px&quot;&gt;mount -t nfs4 172.31.3.170:/OTT_data /lms/media/vod&lt;/font&gt;&lt;/div&gt;&lt;div style=&quot;font-size: 16px;&quot;&gt;&lt;font style=&quot;font-size: 16px&quot;&gt;mount -t nfs4 172.31.3.170:/OTT_data/catchup /mnt/lms/livechannel&lt;/font&gt;&lt;/div&gt;&lt;/div&gt;&lt;div style=&quot;font-size: 16px&quot;&gt;&lt;font style=&quot;font-size: 16px&quot;&gt;&lt;br style=&quot;font-size: 16px;&quot;&gt;&lt;/font&gt;&lt;/div&gt;&lt;div style=&quot;font-size: 16px&quot;&gt;&lt;font style=&quot;font-size: 16px&quot;&gt;IP：36&lt;/font&gt;&lt;/div&gt;&lt;div style=&quot;font-size: 16px&quot;&gt;&lt;font style=&quot;font-size: 16px&quot;&gt;mount -t nfs4 172.31.3.170:/OTT_data/icntv/mp4 /mnt/icntv/mp4/&lt;/font&gt;&lt;/div&gt;&lt;div style=&quot;font-size: 16px&quot;&gt;&lt;div style=&quot;font-size: 16px;&quot;&gt;&lt;font style=&quot;font-size: 16px&quot;&gt;mount -t nfs4 172.31.3.170:/OTT_data /lms/media/vod&lt;/font&gt;&lt;/div&gt;&lt;div style=&quot;font-size: 16px;&quot;&gt;&lt;font style=&quot;font-size: 16px&quot;&gt;mount -t nfs4 172.31.3.170:/OTT_data/catchup /mnt/lms/livechannel&lt;/font&gt;&lt;/div&gt;&lt;/div&gt;&lt;div style=&quot;font-size: 16px&quot;&gt;&lt;font style=&quot;font-size: 16px&quot;&gt;&lt;br style=&quot;font-size: 16px;&quot;&gt;&lt;/font&gt;&lt;/div&gt;&lt;div style=&quot;font-size: 16px&quot;&gt;&lt;font style=&quot;font-size: 16px&quot;&gt;IP：37&lt;/font&gt;&lt;/div&gt;&lt;div style=&quot;font-size: 16px&quot;&gt;&lt;font style=&quot;font-size: 16px&quot;&gt;mount -t nfs4 172.31.3.171:/OTT_data/icntv/mp4 /mnt/icntv/mp4/&lt;/font&gt;&lt;/div&gt;&lt;div style=&quot;font-size: 16px&quot;&gt;&lt;div style=&quot;font-size: 16px;&quot;&gt;&lt;font style=&quot;font-size: 16px&quot;&gt;mount -t nfs4 172.31.3.170:/OTT_data /lms/media/vod&lt;/font&gt;&lt;/div&gt;&lt;div style=&quot;font-size: 16px;&quot;&gt;&lt;font style=&quot;font-size: 16px&quot;&gt;mount -t nfs4 172.31.3.170:/OTT_data/catchup /mnt/lms/livechannel&lt;/font&gt;&lt;/div&gt;&lt;/div&gt;" style="rounded=0;whiteSpace=wrap;html=1;fontSize=16;align=left;" vertex="1" parent="1">
          <mxGeometry x="125.13" y="900" width="551" height="340" as="geometry" />
        </mxCell>
        <mxCell id="Vli8Tv3BmSBitWUGqj1g-46" style="edgeStyle=none;rounded=0;orthogonalLoop=1;jettySize=auto;html=1;entryX=0.25;entryY=0;entryDx=0;entryDy=0;fontSize=16;exitX=0.5;exitY=1;exitDx=0;exitDy=0;" edge="1" parent="1" source="Vli8Tv3BmSBitWUGqj1g-29" target="Vli8Tv3BmSBitWUGqj1g-41">
          <mxGeometry relative="1" as="geometry" />
        </mxCell>
        <mxCell id="Vli8Tv3BmSBitWUGqj1g-29" value="&lt;b style=&quot;font-size: 16px;&quot;&gt;入口 Balance&lt;br style=&quot;font-size: 16px;&quot;&gt;LVS&lt;br style=&quot;font-size: 16px;&quot;&gt;&lt;br style=&quot;font-size: 16px;&quot;&gt;&lt;/b&gt;" style="rounded=0;whiteSpace=wrap;html=1;fontSize=16;verticalAlign=top;" vertex="1" parent="1">
          <mxGeometry x="190" y="-490" width="420" height="130" as="geometry" />
        </mxCell>
        <mxCell id="Vli8Tv3BmSBitWUGqj1g-47" style="edgeStyle=none;rounded=0;orthogonalLoop=1;jettySize=auto;html=1;entryX=0.75;entryY=0;entryDx=0;entryDy=0;fontSize=16;exitX=0.5;exitY=1;exitDx=0;exitDy=0;" edge="1" parent="1" source="Vli8Tv3BmSBitWUGqj1g-29" target="Vli8Tv3BmSBitWUGqj1g-41">
          <mxGeometry relative="1" as="geometry" />
        </mxCell>
        <mxCell id="Vli8Tv3BmSBitWUGqj1g-30" value="VIP &lt;br style=&quot;font-size: 16px;&quot;&gt;192.168.60.21" style="rounded=0;whiteSpace=wrap;html=1;fontSize=16;" vertex="1" parent="1">
          <mxGeometry x="330" y="-440" width="120" height="60" as="geometry" />
        </mxCell>
        <mxCell id="Vli8Tv3BmSBitWUGqj1g-53" style="edgeStyle=none;rounded=0;orthogonalLoop=1;jettySize=auto;html=1;entryX=0.25;entryY=0;entryDx=0;entryDy=0;fontSize=16;exitX=0.5;exitY=1;exitDx=0;exitDy=0;" edge="1" parent="1" source="Vli8Tv3BmSBitWUGqj1g-41" target="Vli8Tv3BmSBitWUGqj1g-48">
          <mxGeometry relative="1" as="geometry" />
        </mxCell>
        <mxCell id="Vli8Tv3BmSBitWUGqj1g-54" style="edgeStyle=none;rounded=0;orthogonalLoop=1;jettySize=auto;html=1;entryX=0.75;entryY=0;entryDx=0;entryDy=0;fontSize=16;exitX=0.5;exitY=1;exitDx=0;exitDy=0;" edge="1" parent="1" source="Vli8Tv3BmSBitWUGqj1g-41" target="Vli8Tv3BmSBitWUGqj1g-48">
          <mxGeometry relative="1" as="geometry" />
        </mxCell>
        <mxCell id="Vli8Tv3BmSBitWUGqj1g-41" value="&lt;b style=&quot;font-size: 16px;&quot;&gt;端口服务分发&lt;br style=&quot;font-size: 16px;&quot;&gt;Nginx&lt;/b&gt;" style="rounded=0;whiteSpace=wrap;html=1;fontSize=16;verticalAlign=top;" vertex="1" parent="1">
          <mxGeometry x="191.25" y="-300" width="420" height="130" as="geometry" />
        </mxCell>
        <mxCell id="Vli8Tv3BmSBitWUGqj1g-42" value="192.168.60.42" style="rounded=0;whiteSpace=wrap;html=1;fontSize=16;" vertex="1" parent="1">
          <mxGeometry x="220" y="-260" width="120" height="60" as="geometry" />
        </mxCell>
        <mxCell id="Vli8Tv3BmSBitWUGqj1g-43" value="192.168.60.43" style="rounded=0;whiteSpace=wrap;html=1;fontSize=16;" vertex="1" parent="1">
          <mxGeometry x="440" y="-260" width="120" height="60" as="geometry" />
        </mxCell>
        <mxCell id="Vli8Tv3BmSBitWUGqj1g-66" style="edgeStyle=none;rounded=0;orthogonalLoop=1;jettySize=auto;html=1;fontSize=16;" edge="1" parent="1" source="Vli8Tv3BmSBitWUGqj1g-48" target="Vli8Tv3BmSBitWUGqj1g-65">
          <mxGeometry relative="1" as="geometry" />
        </mxCell>
        <mxCell id="Vli8Tv3BmSBitWUGqj1g-48" value="&lt;a name=&quot;_GoBack&quot; style=&quot;font-size: 16px;&quot;&gt;&lt;span lang=&quot;EN-US&quot; style=&quot;font-size: 16px; line-height: 115%; font-family: calibri, sans-serif;&quot;&gt;&lt;b style=&quot;font-size: 16px;&quot;&gt;服务认证、鉴权等&lt;br style=&quot;font-size: 16px;&quot;&gt;SpiderServer&lt;/b&gt;&lt;/span&gt;&lt;/a&gt;" style="rounded=0;whiteSpace=wrap;html=1;fontSize=16;verticalAlign=top;" vertex="1" parent="1">
          <mxGeometry x="190" y="-100" width="420" height="145" as="geometry" />
        </mxCell>
        <mxCell id="Vli8Tv3BmSBitWUGqj1g-49" value="192.168.60.38" style="rounded=0;whiteSpace=wrap;html=1;fontSize=16;" vertex="1" parent="1">
          <mxGeometry x="222.5" y="-50" width="120" height="60" as="geometry" />
        </mxCell>
        <mxCell id="Vli8Tv3BmSBitWUGqj1g-50" value="192.168.60.39" style="rounded=0;whiteSpace=wrap;html=1;fontSize=16;" vertex="1" parent="1">
          <mxGeometry x="442.5" y="-50" width="120" height="60" as="geometry" />
        </mxCell>
        <mxCell id="Vli8Tv3BmSBitWUGqj1g-51" value="" style="shape=flexArrow;endArrow=classic;html=1;fontSize=16;" edge="1" parent="1">
          <mxGeometry width="50" height="50" relative="1" as="geometry">
            <mxPoint x="389.5" y="60" as="sourcePoint" />
            <mxPoint x="389.5" y="130" as="targetPoint" />
          </mxGeometry>
        </mxCell>
        <mxCell id="Vli8Tv3BmSBitWUGqj1g-52" value="SpiderServer host 文件&lt;br style=&quot;font-size: 16px&quot;&gt;找到对应的 IP 地址" style="text;html=1;align=center;verticalAlign=middle;resizable=0;points=[];autosize=1;fontSize=16;" vertex="1" parent="1">
          <mxGeometry x="400" y="70" width="180" height="40" as="geometry" />
        </mxCell>
        <mxCell id="Vli8Tv3BmSBitWUGqj1g-55" value="反向代理" style="text;html=1;align=center;verticalAlign=middle;resizable=0;points=[];autosize=1;fontSize=16;" vertex="1" parent="1">
          <mxGeometry x="490" y="-145" width="80" height="20" as="geometry" />
        </mxCell>
        <mxCell id="Vli8Tv3BmSBitWUGqj1g-56" value="负载均衡" style="text;html=1;align=center;verticalAlign=middle;resizable=0;points=[];autosize=1;fontSize=16;" vertex="1" parent="1">
          <mxGeometry x="482.5" y="-345" width="80" height="20" as="geometry" />
        </mxCell>
        <mxCell id="Vli8Tv3BmSBitWUGqj1g-58" value="PC端域名访问" style="rounded=0;whiteSpace=wrap;html=1;fontSize=16;align=center;" vertex="1" parent="1">
          <mxGeometry x="300" y="-680" width="180" height="80" as="geometry" />
        </mxCell>
        <mxCell id="Vli8Tv3BmSBitWUGqj1g-59" value="" style="shape=flexArrow;endArrow=classic;html=1;fontSize=16;" edge="1" parent="1">
          <mxGeometry width="50" height="50" relative="1" as="geometry">
            <mxPoint x="389.5" y="-584.5" as="sourcePoint" />
            <mxPoint x="389.5" y="-504.5" as="targetPoint" />
          </mxGeometry>
        </mxCell>
        <mxCell id="Vli8Tv3BmSBitWUGqj1g-60" value="解析本地 host，&lt;br style=&quot;font-size: 16px;&quot;&gt;然后访问" style="text;html=1;align=center;verticalAlign=middle;resizable=0;points=[];autosize=1;fontSize=16;" vertex="1" parent="1">
          <mxGeometry x="415" y="-565" width="130" height="40" as="geometry" />
        </mxCell>
        <mxCell id="Vli8Tv3BmSBitWUGqj1g-61" value="机顶盒DNS的地址，兼职负责域名解析" style="shape=callout;whiteSpace=wrap;html=1;perimeter=calloutPerimeter;fontSize=16;align=center;position2=0.29;size=40;position=0.53;base=48;fillColor=#fff2cc;strokeColor=#d6b656;" vertex="1" parent="1">
          <mxGeometry x="611.25" y="500" width="168.75" height="130" as="geometry" />
        </mxCell>
        <mxCell id="Vli8Tv3BmSBitWUGqj1g-62" value="主&lt;br style=&quot;font-size: 16px;&quot;&gt;&lt;span lang=&quot;EN-US&quot; style=&quot;font-size: 16px; line-height: 115%; font-family: calibri, sans-serif;&quot;&gt;192.168.60.40&lt;/span&gt;" style="rounded=0;whiteSpace=wrap;html=1;fontSize=16;align=center;" vertex="1" parent="1">
          <mxGeometry x="790" y="-100" width="120" height="60" as="geometry" />
        </mxCell>
        <mxCell id="Vli8Tv3BmSBitWUGqj1g-63" value="备&lt;br style=&quot;font-size: 16px;&quot;&gt;&lt;span lang=&quot;EN-US&quot; style=&quot;font-size: 16px; line-height: 115%; font-family: calibri, sans-serif;&quot;&gt;192.168.60.41&lt;/span&gt;" style="rounded=0;whiteSpace=wrap;html=1;fontSize=16;align=center;" vertex="1" parent="1">
          <mxGeometry x="790" y="-2.5" width="120" height="60" as="geometry" />
        </mxCell>
        <mxCell id="Vli8Tv3BmSBitWUGqj1g-65" value="VIP&amp;nbsp;&lt;br&gt;&lt;span lang=&quot;EN-US&quot; style=&quot;font-size: 16px ; line-height: 115% ; font-family: &amp;#34;calibri&amp;#34; , sans-serif&quot;&gt;192.168.60.47&lt;/span&gt;" style="text;html=1;align=center;verticalAlign=middle;resizable=0;points=[];autosize=1;fontSize=16;" vertex="1" parent="1">
          <mxGeometry x="676.13" y="-47.5" width="110" height="40" as="geometry" />
        </mxCell>
      </root>
    </mxGraphModel>
  </diagram>
</mxfile>
